# xmcd CD database file
#
# Track frame offsets:
#	150
#	19568
#	39604
#	57815
#	76044
#	92875
#	108870
#	125514
#	138144
#	149746
#	162609
#	175693
#	186023
#	196924
#	212894
#	227890
#	244716
#	260685
#	274433
#	289040
#	302521
#	314757
#	325033
#	343056
#
# Disc length: 4720 seconds
#
# Revision: 0
# Processed by: cddbd v1.5.2PL0 Copyright (c) Steve Scherf et al.
# Submitted via: CDex 1.51
#
DISCID=63126e18
DTITLE=Dizzy Gillespie - 1952 - 1953
DYEAR=2004
DGENRE=Jazz
TTITLE0=Summertime
TTITLE1=Blue Moon
TTITLE2=Blues chante (Mama's Blues)
TTITLE3=Cripple Crapple Crutch
TTITLE4=Dizzy Sony (Lady Bird)
TTITLE5=Somebody Loves My Baby
TTITLE6=She's Funny That Way
TTITLE7=Wrap Your Troubles in Dreams
TTITLE8=Sweet Lorraine
TTITLE9=Everything Happens to Me
TTITLE10=I Don't Know Why
TTITLE11=Blue Skies
TTITLE12=Umbrella Man
TTITLE13=Pop's Confessin'
TTITLE14=Oh-Sho-Be-Do-Be
TTITLE15=They Can't Take That Away From Me
TTITLE16=Muskrat Ramble
TTITLE17=Battle of the Blues
TTITLE18=How High the Moon
TTITLE19=Always
TTITLE20=Mon Homme (My Man)
TTITLE21=Clappin' Rhythm (I Got Ryhthm)
TTITLE22=Fais gaffe (Watch Out) (Dizzy Does It)
TTITLE23=Moon Nocturne
EXTD=YEAR: 2004
EXTT0=
EXTT1=
EXTT2=
EXTT3=
EXTT4=
EXTT5=
EXTT6=
EXTT7=
EXTT8=
EXTT9=
EXTT10=
EXTT11=
EXTT12=
EXTT13=
EXTT14=
EXTT15=
EXTT16=
EXTT17=
EXTT18=
EXTT19=
EXTT20=
EXTT21=
EXTT22=
EXTT23=
PLAYORDER=
